# xmcd
#
# Track frame offsets:
#	150
#	10640
#	21401
#	32653
#	44241
#	54507
#	65328
#	78553
#	87616
#	100163
#	113175
#	123527
#	135133
#	148242
#	159004
#	169603
#	180171
#	191566
#	203781
#	215882
#	229682
#	241195
#	253624
#	264395
#	276519
#
# Disc length: 3853 seconds
#
# Revision: 1
# Processed by: cddbd v1.5.2PL0 Copyright (c) Steve Scherf et al.
# Submitted via: audiograbber 1.83.01
#
DISCID=600f0b19
DTITLE=Ultimate Country - Ultimate Country - CD2
DYEAR=2007
DGENRE=Country
TTITLE0=Dolly Parton - I Love You Honey
TTITLE1=Jim Reeves - Let Me Remember (The Things I Can't Forget)
TTITLE2=Ray Price - Wasted Words
TTITLE3=Marty Robbins - That's All Right
TTITLE4=George Jones - Why Baby Why?
TTITLE5=Johnny Horton - All For The Love Of A Girl
TTITLE6=Slim Whitman - Love Song Of The Waterfall
TTITLE7=June Carter - You Flopped When You Got Me Alone
TTITLE8=The Delmore Brothers - Muddy Water
TTITLE9=Lefty Frizzell - It Gets Late So Early 
TTITLE10=Hank Snow - The Goldrush Is Over
TTITLE11=Eddy Arnold - Easy On The Eyes
TTITLE12=Webb Pierce - That Heart Belongs To Me
TTITLE13=Faron Young - If You Ain't Lovin' (You Ain't Livin')
TTITLE14=Chet Atkins - Red Wing
TTITLE15=Waylon Jennings - Only Daddy That'll Walk The Line
TTITLE16=Mitchell Torok - Caribbean
TTITLE17=Kitty Wells - Gathering Flowers For The Master's Bouquet
TTITLE18=Lester Flatt and Earl Scruggs with The Foggy Mountain Boys - Come Back
TTITLE18=To Me, Darling
TTITLE19=Kenny Roberts - I Never See Maggie Alone
TTITLE20=Hank Williams - My Bucket's Got A Hole In It
TTITLE21=Floyd Tillman - Slippin' Around
TTITLE22=Carl Smith - (When You Feel Like You're In Love) Don't Just Stand Ther
TTITLE22=e
TTITLE23=Willie Nelson - Following Me Around
TTITLE24=Dolly Parton - Two Little Orphans
EXTD=
EXTT0=
EXTT1=
EXTT2=
EXTT3=
EXTT4=
EXTT5=
EXTT6=
EXTT7=
EXTT8=
EXTT9=
EXTT10=
EXTT11=
EXTT12=
EXTT13=
EXTT14=
EXTT15=
EXTT16=
EXTT17=
EXTT18=
EXTT19=
EXTT20=
EXTT21=
EXTT22=
EXTT23=
EXTT24=
PLAYORDER=
